#!OML:ASF F:\VICON\USERDATA\INSTALL\rory3\rory3.ASF
:FULLY-SPECIFIED
:DEGREES
102
root 1.2504129538578952 17.911110391647043 51.51344296285787 -3.7446135106101943 1.5403673568655023 -3.8551733533700805
lfemur -17.75960568932839 -2.385650017200863 -17.730049529736746
ltibia 37.86509395427994
lfoot -8.373791396898184 1.4885185219036927
ltoes -10.555848269147024
rfemur -0.6756967403574947 2.244454490196116 27.61999867993429
rtibia 39.75398810137519
rfoot -7.17533352331418 -9.699187127413486
rtoes 0.8239847347952263
lowerback 9.020021962749816 0.5703389835492952 4.101434766948826
upperback -0.09796167179370549 1.861258293648958 1.3292881301031887
thorax -4.946058350669564 0.8583895282452414 -1.611561375695504
lowerneck -16.03135629738307 -3.424339876070073 -1.673824743565786
upperneck 21.704289185085383 -4.492285508565171 0.8981967691206529
head 9.635478556295995 -2.134129448550024 -0.0958930219986794
lclavicle 5.768270068589161e-16 -6.915589143123157e-16
lhumerus -33.875683315190585 5.683119283316506 81.42476068859752
lradius 23.14599226198603
lwrist 9.58128168385845
lhand -28.716954510263747 19.48735844571378
lfingers nan
lthumb -2.0544287963649817 49.55411716563365
rclavicle 4.352680627490239e-16 -8.089278062252993e-16
rhumerus -26.604095386458276 -17.778831222347453 -76.74709062779787
rradius 32.6079457958708
rwrist 0.3240140519949626
rhand -17.80383343302677 21.684917281857974
rfingers nan
rthumb 8.638041267380315 -7.697234039432982
103
root 1.2921815616223364 17.92361875461128 53.708620414417574 -3.601660776898896 2.0813398567291435 -2.5333616166228348
lfemur -16.247971295897514 -3.0056900040339016 -19.58072801142205
ltibia 33.0746758853514
lfoot -8.376297974879105 0.6595672074039842
ltoes -10.45337593094686
rfemur -1.7604242107420518 1.5666627933262647 25.93284593465116
rtibia 43.133275135193955
rfoot -6.183205337385784 -10.175219581457386
rtoes 2.9281561377528518
lowerback 8.912187104950432 0.4242073358312636 3.2060870074372043
upperback -0.09022293080109958 1.5127387140917037 1.1623244659191472
thorax -4.903836985880516 0.7050555390581684 -1.402421799221111
lowerneck -16.016127978953488 -3.409632409143672 -1.6840538777665224
upperneck 21.671841151135183 -4.483360500154864 1.0632785144166754
head 9.6307161321607 -2.123974657952608 -0.016143414387987276
lclavicle 5.779718117363682e-16 -6.903859937797628e-16
lhumerus -33.72555651232131 5.535408501115929 81.3595345476034
lradius 23.6767925191665
lwrist 9.435051549323127
lhand -28.702774137194194 19.44061934983349
lfingers nan
lthumb -2.0050523687157034 49.58138748265018
rclavicle 4.3265490623780154e-16 -8.103605957702837e-16
rhumerus -26.40400824377614 -17.10051587176315 -76.98898946687595
rradius 32.71398209231073
rwrist 0.479988727861
rhand -17.79863250475487 21.70672680201547
rfingers nan
rthumb 8.6574653729729 -7.637176534802317
104
root 1.2910345194285222 17.92487704525601 53.55184379728458 -3.5744850863064856 2.1413950863426594 -1.7581140843964638
lfemur -14.315861221308896 -3.465829766049869 -20.94473858109709
ltibia 29.0239017555465
lfoot -8.22447722416712 -0.6802938135455161
ltoes -10.528429377618352
rfemur -3.425452882900183 1.0438230758828415 24.742861172270533
rtibia 46.862051679516576
rfoot -5.739533573326426 -10.205956289243755
rtoes 4.741646896053835
lowerback 8.868611301894932 0.29682032164105987 2.4943771692105834
upperback -0.07505469114834015 1.2115282297457202 1.0440917524151276
thorax -4.923822487311158 0.5606414137556492 -1.164959212069708
lowerneck -16.069894233845297 -3.4079645139973813 -1.6995325770964562
upperneck 21.580690572838616 -4.491202477068328 1.2427876149039154
head 9.611450005011479 -2.1171212525208087 0.0652582856930083
lclavicle 5.768258587954507e-16 -6.901599801977612e-16
lhumerus -33.38019743258431 5.356201553792921 81.27753934342218
lradius 24.182415188987054
lwrist 9.300274053050739
lhand -28.658995682743885 19.46109388218197
lfingers nan
lthumb -1.9541690907790064 49.64266355562195
rclavicle 4.2887367628544794e-16 -8.109237375552093e-16
rhumerus -26.384661502124 -16.60758155394375 -77.33783168332955
rradius 32.75092564683977
rwrist 0.8011124366364162
rhand -17.785378946509113 21.75990390244714
rfingers nan
rthumb 8.640191910517814 -7.640361766674449
105
root 1.2905272310780025 17.925220956684804 53.955464772661855 -3.5133117734679447 2.0780348287106776 -1.1667730982969688
lfemur -12.16835560410214 -3.7861788216186607 -22.016418612025227
ltibia 25.999504139255684
lfoot -8.216979682975593 -1.8130976354599628
ltoes -9.231878899636321
rfemur -5.55370475809072 0.624119238404651 23.729427382963255
rtibia 50.757553752331695
rfoot -5.7207467076013945 -9.662912746966988
rtoes 6.0804795527637285
lowerback 8.856155080344756 0.12486802067017319 1.8467655627730823
upperback -0.052125219482032775 0.8806978353287 0.9675382755449117
thorax -4.975388829712565 0.4046083850397441 -0.8464017327441568
lowerneck -16.11575768971314 -3.388790758090986 -1.6650661164012004
upperneck 21.446395496287046 -4.47242236431748 1.3980410981568299
head 9.582264936219335 -2.100524064964915 0.14021158111112575
lclavicle 5.740106698455492e-16 -6.909314972527955e-16
lhumerus -32.88023524162686 5.169191734764269 81.19010005802288
lradius 24.64503676087231
lwrist 9.155246389136138
lhand -28.632054993758594 19.46823165529595
lfingers nan
lthumb -1.8951238710447245 49.71347711815958
rclavicle 4.2523965025737075e-16 -8.109524247309622e-16
rhumerus -26.488474600849937 -16.323996652202037 -77.76966880003731
rradius 32.714536621754576
rwrist 1.2675193811867995
rhand -17.77184735273615 21.811823831846382
rfingers nan
rthumb 8.673068793998512 -7.530649808962535
106
root 1.2517526087749788 17.911477887403287 52.54756601668277 -3.632621384235323 1.6040927753775391 -0.9846632395792502
lfemur -9.825144608718682 -3.88215400888837 -22.60424762453282
ltibia 24.065214783223528
lfoot -8.59434609552211 -3.1391193931640133
ltoes -8.427662412526203
rfemur -8.033389731069791 0.4422658627590388 23.312674449673683
rtibia 54.519922872465116
rfoot -5.98499799828566 -8.488415810277903
rtoes 6.761612202002938
lowerback 8.896157278750469 -0.03670342199707194 1.3336230203616133
upperback -0.02456645550658612 0.5893023989901426 0.9347896984708972
thorax -5.048346285040576 0.25971409940138557 -0.5068401711970064
lowerneck -16.210141687158526 -3.3862497036867483 -1.6511704513656094
upperneck 21.310841085355673 -4.471064320413004 1.5480020939358519
head 9.557358624006017 -2.0889775917493743 0.2052068501560378
lclavicle 5.692050476708101e-16 -6.928074283359636e-16
lhumerus -32.261104434404494 4.868131059081726 81.09421027817471
lradius 25.06846268817037
lwrist 8.96114114541935
lhand -28.562359552059714 19.527797052180183
lfingers nan
lthumb -1.8217839726472358 49.7890864043103
rclavicle 4.2179139513656463e-16 -8.099484403381906e-16
rhumerus -26.65570589313529 -16.23374267316835 -78.24256012537872
rradius 32.604978258739365
rwrist 1.7527767877440619
rhand -17.759091633231783 21.850286358594303
rfingers nan
rthumb 8.651663960430316 -7.5649000787035
